<svg xmlns="http://www.w3.org/2000/svg" viewBox="0 0 1500 760"><rect width="1500" height="760" fill="#f4efe4"/><rect width="230" height="760" fill="#eee8da"/><text x="35" y="68" font-family="Georgia" font-size="34" font-weight="700" fill="#173f34">SULAWOG</text><text x="35" y="98" font-family="Arial" font-size="12" letter-spacing="2" fill="#173f34">INVENTORY CONTROL CENTRE</text><g font-family="Arial" font-size="16" fill="#2d4a40"><text x="35" y="180">Overview</text><text x="35" y="235">Inventory</text><text x="35" y="290">Movements</text><text x="35" y="345">Locations</text><text x="35" y="400">Stock Count</text><text x="35" y="455">Reports</text><text x="35" y="510">Accounts</text><text x="35" y="565">Corrections</text></g><text x="275" y="82" font-family="Georgia" font-size="42" fill="#173f34">Overview</text><text x="275" y="112" font-family="Arial" font-size="15" fill="#647069">Today's stock and money position.</text><g font-family="Arial"><g transform="translate(275 150)"><rect width="270" height="125" rx="18" fill="#e7f0df" stroke="#cad8c4"/><text x="22" y="35" font-size="13" letter-spacing="2" fill="#4c6457">STOCK</text><text x="22" y="78" font-size="25" font-weight="700" fill="#173f34">Units on hand</text><text x="22" y="104" font-size="14" fill="#617069">Across active locations</text></g><g transform="translate(565 150)"><rect width="270" height="125" rx="18" fill="#f4ecda" stroke="#ddd1b8"/><text x="22" y="35" font-size="13" letter-spacing="2" fill="#6b6049">VALUE</text><text x="22" y="78" font-size="25" font-weight="700" fill="#173f34">Retail reference</text><text x="22" y="104" font-size="14" fill="#6b675d">Current stock view</text></g><g transform="translate(855 150)"><rect width="270" height="125" rx="18" fill="#f4e3dc" stroke="#dfc8be"/><text x="22" y="35" font-size="13" letter-spacing="2" fill="#70594f">RECEIVABLES</text><text x="22" y="78" font-size="25" font-weight="700" fill="#173f34">Customer balances</text><text x="22" y="104" font-size="14" fill="#6b625e">Outstanding accounts</text></g><g transform="translate(1145 150)"><rect width="290" height="125" rx="18" fill="#e1edef" stroke="#c3d6d8"/><text x="22" y="35" font-size="13" letter-spacing="2" fill="#4d6668">MONEY FLOW</text><text x="22" y="78" font-size="25" font-weight="700" fill="#173f34">Received / pending</text><text x="22" y="104" font-size="14" fill="#617073">Reconciliation view</text></g></g><rect x="275" y="320" width="1160" height="365" rx="22" fill="#fbfaf6" stroke="#d8d1c3"/><text x="310" y="370" font-family="Georgia" font-size="30" fill="#173f34">Sales & money flow</text><text x="310" y="400" font-family="Arial" font-size="15" fill="#68716c">Separate stock movement from money received and balances still outstanding.</text><g font-family="Arial"><g transform="translate(310 445)"><rect width="245" height="160" rx="16" fill="#e8f1e4"/><text x="20" y="35" font-size="13" fill="#52655b">PRODUCTS SOLD</text><text x="20" y="78" font-size="22" font-weight="700" fill="#173f34">Movement recorded</text><text x="20" y="112" font-size="15" fill="#617069">What left stock</text></g><g transform="translate(575 445)"><rect width="245" height="160" rx="16" fill="#e5f0f1"/><text x="20" y="35" font-size="13" fill="#52666a">MONEY RECEIVED</text><text x="20" y="78" font-size="22" font-weight="700" fill="#173f34">Collections tracked</text><text x="20" y="112" font-size="15" fill="#617073">What came in</text></g><g transform="translate(840 445)"><rect width="245" height="160" rx="16" fill="#e7eaf2"/><text x="20" y="35" font-size="13" fill="#596171">ACCOUNTING</text><text x="20" y="78" font-size="22" font-weight="700" fill="#173f34">Position visible</text><text x="20" y="112" font-size="15" fill="#656b77">What needs action</text></g><g transform="translate(1105 445)"><rect width="295" height="160" rx="16" fill="#f3ecd9"/><text x="20" y="35" font-size="13" fill="#6e644d">CONTROL</text><text x="20" y="78" font-size="22" font-weight="700" fill="#173f34">Corrections traceable</text><text x="20" y="112" font-size="15" fill="#6c675d">What changed and why</text></g></g></svg>